<svg width="20" height="19" viewBox="0 0 20 19" fill="none" xmlns="http://www.w3.org/2000/svg">
<g clip-path="url(#clip0_182_786)">
<path d="M6.42093 13.3096H13.579V15.061H6.42093V13.3096Z" fill="curentColor"/>
<path d="M18.055 8.93735C18.0336 8.93735 18.0124 8.93804 17.9913 8.93919C17.6531 7.05689 16.0071 5.62862 14.0275 5.62862C11.8032 5.62862 9.99999 7.43182 9.99999 9.65614C9.99999 7.43182 8.19683 5.62866 5.97251 5.62866C3.99289 5.62866 2.34688 7.05696 2.00871 8.93922C1.98761 8.93807 1.96641 8.93739 1.94503 8.93739C1.31264 8.93735 0.799988 9.45 0.799988 10.0824C0.799988 10.7148 1.31264 11.2274 1.94503 11.2274C2.57742 11.2274 3.09007 10.7148 3.09007 10.0824C3.09007 9.48939 2.63927 9.00168 2.06168 8.94325C2.35946 8.05692 3.19634 7.41817 4.183 7.41817C5.419 7.41817 6.42097 8.42014 6.42097 9.65614V12.2315H13.5791V9.65614C13.5791 8.42014 14.5811 7.41817 15.817 7.41817C16.8036 7.41817 17.6406 8.05692 17.9383 8.94325C17.3607 9.00168 16.9099 9.48939 16.9099 10.0824C16.9099 10.7148 17.4226 11.2274 18.055 11.2274C18.6874 11.2274 19.2 10.7148 19.2 10.0824C19.2 9.45 18.6873 8.93735 18.055 8.93735Z" fill="curentColor"/>
<path d="M9.99999 6.51693C10.1284 6.35284 10.2676 6.19557 10.4173 6.04589C10.7152 5.74797 11.0435 5.49156 11.3951 5.2792C11.0922 4.83254 10.5804 4.53896 9.99999 4.53896C9.4196 4.53896 8.90781 4.8325 8.60486 5.2792C8.95647 5.49152 9.2848 5.74797 9.58272 6.04589C9.7324 6.19557 9.87155 6.35284 9.99999 6.51693Z" fill="curentColor"/>
</g>
<defs>
<clipPath id="clip0_182_786">
<rect width="18.4" height="18.4" fill="curentColor" transform="translate(0.799988 0.599998)"/>
</clipPath>
</defs>
</svg>
